
<?xml version="1.0" encoding="UTF-8"?>
<!-- Generator: visioncortex VTracer 0.6.2 -->
<svg version="1.1" xmlns="http://www.w3.org/2000/svg" width="1280" height="402">
<path d="M0 0 C1.17784058 -0.00281982 2.35568115 -0.00563965 3.56921387 -0.00854492 C5.51737 -0.00550858 5.51737 -0.00550858 7.50488281 -0.00241089 C8.88122606 -0.00376534 10.25756894 -0.00554553 11.63391113 -0.00772095 C15.37761825 -0.01229001 19.12129788 -0.01050788 22.86500549 -0.00734186 C26.77719193 -0.00481555 30.68937597 -0.00715656 34.6015625 -0.00872803 C41.17220483 -0.01054893 47.74283593 -0.00814549 54.31347656 -0.00338745 C61.91723404 0.00205502 69.5209647 0.0002923 77.12472153 -0.00521386 C83.64533595 -0.00974725 90.16594228 -0.01039442 96.68655777 -0.00777519 C100.58445933 -0.00621366 104.48234827 -0.00601526 108.38024902 -0.00931168 C112.04423787 -0.01219366 115.70819204 -0.01020864 119.37217712 -0.00441742 C121.36371818 -0.00245755 123.35526216 -0.00544096 125.34680176 -0.00854492 C127.11356262 -0.00431519 127.11356262 -0.00431519 128.91601562 0 C129.94398254 0.00037703 130.97194946 0.00075405 132.03106689 0.0011425 C134.45800781 0.12698364 134.45800781 0.12698364 136.45800781 1.12698364 C136.45800781 17.62698364 136.45800781 34.12698364 136.45800781 51.12698364 C92.40300781 51.62198364 92.40300781 51.62198364 47.45800781 52.12698364 C47.45800781 64.00698364 47.45800781 75.88698364 47.45800781 88.12698364 C55.86914062 88.1095813 55.86914062 88.1095813 64.45019531 88.09182739 C67.99576938 88.08671981 71.54133893 88.08190598 75.08691406 88.07815552 C80.71859678 88.07217025 86.3502633 88.06507834 91.98193359 88.05154419 C96.52064314 88.04070453 101.05933531 88.0347045 105.59805679 88.0321064 C107.33246255 88.03025411 109.06686732 88.02663721 110.80126572 88.02125359 C113.22446522 88.01402886 115.64759229 88.01299331 118.07080078 88.01345825 C119.15405136 88.00806534 119.15405136 88.00806534 120.25918579 88.00256348 C125.22990349 88.01293148 125.22990349 88.01293148 127.45800781 89.12698364 C127.45800781 105.62698364 127.45800781 122.12698364 127.45800781 139.12698364 C101.05800781 139.45698364 74.65800781 139.78698364 47.45800781 140.12698364 C47.45800781 152.99698364 47.45800781 165.86698364 47.45800781 179.12698364 C53.85949219 179.11538208 60.26097656 179.10378052 66.85644531 179.09182739 C70.90332132 179.08672001 74.95019338 179.08190619 78.99707031 179.07815552 C85.42546409 179.0721695 91.85384367 179.06507557 98.28222656 179.05154419 C103.46283753 179.0407071 108.64343329 179.03470505 113.82405472 179.0321064 C115.80407577 179.03025364 117.78409596 179.02663586 119.76411057 179.02125359 C122.52977064 179.01403228 125.29536723 179.01299317 128.06103516 179.01345825 C128.88606033 179.00986298 129.71108551 179.0062677 130.56111145 179.00256348 C136.22990349 179.01293148 136.22990349 179.01293148 138.45800781 180.12698364 C138.45800781 196.95698364 138.45800781 213.78698364 138.45800781 231.12698364 C119.7172782 231.19464096 100.9766471 231.24993054 82.23582649 231.28242016 C73.53461467 231.29790498 64.83348398 231.31902523 56.13232422 231.353302 C48.55052573 231.38315506 40.96878597 231.40254688 33.38693035 231.40924913 C29.3704399 231.41316837 25.35411752 231.42241233 21.33768082 231.44417381 C17.56040136 231.46447449 13.78335986 231.47083058 10.00603104 231.46630669 C8.61683358 231.46713478 7.22762851 231.47313872 5.83847809 231.48460007 C3.94748125 231.49944196 2.0563579 231.49416907 0.16531372 231.48774719 C-0.89474821 231.49051257 -1.95481014 231.49327795 -3.04699516 231.49612713 C-3.87034418 231.37430978 -4.6936932 231.25249243 -5.54199219 231.12698364 C-8.18609706 227.16082634 -7.81316148 223.75090424 -7.78250122 219.14842224 C-7.78421007 218.21889258 -7.78591892 217.28936292 -7.78767955 216.33166569 C-7.79098483 213.20387203 -7.77995364 210.07629089 -7.76904297 206.94851685 C-7.76847908 204.71164963 -7.76879498 202.47478204 -7.76992798 200.23791504 C-7.77050336 194.15354377 -7.75871906 188.06925086 -7.74478006 181.98489785 C-7.73230357 175.6307491 -7.73110464 169.27659869 -7.72872925 162.92243958 C-7.72321316 152.25354491 -7.71070861 141.58468131 -7.69287109 130.915802 C-7.67451648 119.92622014 -7.66035793 108.9366461 -7.65185547 97.947052 C-7.65133002 97.26979218 -7.65080457 96.59253235 -7.65026321 95.8947495 C-7.64765315 92.49717728 -7.64512573 89.099605 -7.6426394 85.70203269 C-7.62190186 57.5103296 -7.58652338 29.31865841 -7.54199219 1.12698364 C-4.90748276 -0.19027107 -2.95139758 0.00108248 0 0 Z M45.45800781 53.12698364 C45.45800781 64.67698364 45.45800781 76.22698364 45.45800781 88.12698364 C45.78800781 88.12698364 46.11800781 88.12698364 46.45800781 88.12698364 C46.45800781 76.57698364 46.45800781 65.02698364 46.45800781 53.12698364 C46.12800781 53.12698364 45.79800781 53.12698364 45.45800781 53.12698364 Z M45.45800781 141.12698364 C45.45800781 153.33698364 45.45800781 165.54698364 45.45800781 178.12698364 C45.78800781 178.12698364 46.11800781 178.12698364 46.45800781 178.12698364 C46.45800781 165.91698364 46.45800781 153.70698364 46.45800781 141.12698364 C46.12800781 141.12698364 45.79800781 141.12698364 45.45800781 141.12698364 Z " fill="#F38A0C" transform="translate(850.5419921875,39.873016357421875)"/>
<path d="M0 0 C19.40608843 17.39463275 32.18450291 37.6031009 34.24267578 64.12744141 C34.69120003 74.67821084 34.38761889 84.69584799 32 95 C31.81179688 95.93070312 31.62359375 96.86140625 31.4296875 97.8203125 C28.37234529 110.52335406 21.85233504 122.44486133 13 132 C12.53464844 132.51159668 12.06929687 133.02319336 11.58984375 133.55029297 C-2.56498746 148.97670589 -18.80942444 158.21019852 -40.0859375 159.23828125 C-61.61881582 159.79316215 -75.95089637 154.63928291 -93 141 C-93 167.07 -93 193.14 -93 220 C-109.17 220 -125.34 220 -142 220 C-142.14944253 190.84379723 -142.29531425 161.68758474 -142.4332476 132.53132543 C-142.44951948 129.09274216 -142.4658351 125.6541591 -142.48217773 122.21557617 C-142.48543066 121.5309877 -142.48868358 120.84639923 -142.49203508 120.14106565 C-142.54487868 109.04193358 -142.60126843 97.94282219 -142.6589582 86.84371436 C-142.71803122 75.46337092 -142.77324254 64.08301448 -142.82505554 52.70263523 C-142.85429759 46.30693914 -142.88532838 39.91126267 -142.92053413 33.51559639 C-142.95357387 27.50342476 -142.98196873 21.49124959 -143.00670624 15.47903824 C-143.01665046 13.26540847 -143.02833318 11.05178577 -143.04183006 8.83817482 C-143.05991827 5.830109 -143.0719128 2.8220809 -143.08229065 -0.1860199 C-143.08909444 -1.07413422 -143.09589823 -1.96224853 -143.10290819 -2.87727541 C-143.10671739 -4.9184683 -143.05925089 -6.95966368 -143 -9 C-141.41554975 -10.58445025 -139.80065777 -10.12728029 -137.60375977 -10.12939453 C-136.66931534 -10.13254669 -135.73487091 -10.13569885 -134.77210999 -10.13894653 C-133.24716164 -10.13591019 -133.24716164 -10.13591019 -131.69140625 -10.1328125 C-130.13582253 -10.13424759 -130.13582253 -10.13424759 -128.54881287 -10.13571167 C-126.35049377 -10.13639369 -124.15217268 -10.13453791 -121.95385742 -10.13037109 C-118.58052051 -10.12502854 -115.20731708 -10.1303126 -111.83398438 -10.13671875 C-109.7031247 -10.13605787 -107.57226512 -10.13477649 -105.44140625 -10.1328125 C-104.42679825 -10.13483673 -103.41219025 -10.13686096 -102.36683655 -10.13894653 C-101.42923996 -10.13579437 -100.49164337 -10.13264221 -99.52563477 -10.12939453 C-98.28439598 -10.12820114 -98.28439598 -10.12820114 -97.01808167 -10.12698364 C-95 -10 -95 -10 -93 -9 C-92.5859375 -6.49609375 -92.5859375 -6.49609375 -92.375 -3.4375 C-92.30023437 -2.42558594 -92.22546875 -1.41367188 -92.1484375 -0.37109375 C-92.09945312 0.41136719 -92.05046875 1.19382812 -92 2 C-91.01 1.175 -90.02 0.35 -89 -0.5 C-62.93507269 -19.8192507 -25.80977498 -20.69555273 0 0 Z M-84.8125 46.875 C-93.2501524 56.93753673 -93.81354812 68.42314867 -93 81 C-91.58313538 90.29367129 -86.51865827 98.73730672 -79.203125 104.65234375 C-74.48687132 107.53728616 -69.19327473 109.17690635 -64 111 C-63.34 111.33 -62.68 111.66 -62 112 C-48.03032135 112.07735149 -36.65026448 110.60989523 -26.23046875 100.48828125 C-20.20534459 93.76673294 -16.88247601 86.99022439 -16 78 C-15.9175 77.15953125 -15.835 76.3190625 -15.75 75.453125 C-15.26106623 65.12439908 -17.85151118 54.34600427 -24 46 C-24.59941406 45.12859375 -25.19882812 44.2571875 -25.81640625 43.359375 C-28.49217423 40.4682053 -31.42636389 38.90012298 -34.9375 37.25 C-35.54529297 36.94707031 -36.15308594 36.64414063 -36.77929688 36.33203125 C-54.03464122 27.9556505 -72.28108235 33.57364356 -84.8125 46.875 Z " fill="#FCFCFC" transform="translate(781,116)"/>
<path d="M0 0 C56.1 0 112.2 0 170 0 C170 16.5 170 33 170 50 C150.53 50.33 131.06 50.66 111 51 C111 110.07 111 169.14 111 230 C59 229 59 229 57 227 C56.75390434 224.02086449 56.75390434 224.02086449 56.75949097 220.11581421 C56.75778212 219.3994837 56.75607327 218.68315318 56.75431263 217.94511569 C56.75100526 215.53280898 56.76204173 213.12077738 56.77294922 210.70849609 C56.77351306 208.98408515 56.7731973 207.25967373 56.77206421 205.53526306 C56.77148865 200.84334062 56.78327569 196.15151972 56.79721212 191.45962095 C56.80968577 186.56021351 56.81088732 181.66080393 56.81326294 176.76138306 C56.81948763 167.4789021 56.83591179 158.19646805 56.85596192 148.91400778 C56.8782902 138.34826815 56.88930661 127.78252632 56.89935279 117.21676898 C56.92027719 95.47781977 56.95547233 73.73891283 57 52 C55.95430344 52.00666183 55.95430344 52.00666183 54.88748169 52.01345825 C48.32472274 52.05349586 41.76199775 52.08396442 35.19914436 52.10362434 C31.82493006 52.11407142 28.45081648 52.12824725 25.07666016 52.15087891 C21.19951682 52.17504885 17.32251723 52.18646511 13.4453125 52.1953125 C12.23070343 52.20563507 11.01609436 52.21595764 9.76467896 52.22659302 C8.64366791 52.22674408 7.52265686 52.22689514 6.36767578 52.22705078 C5.37728302 52.231492 4.38689026 52.23593323 3.3664856 52.24050903 C1 52 1 52 -1 50 C-1.24723816 47.95068359 -1.24723816 47.95068359 -1.24291992 45.3984375 C-1.24599655 44.44404785 -1.24907318 43.4896582 -1.25224304 42.50634766 C-1.24505753 41.47300293 -1.23787201 40.4396582 -1.23046875 39.375 C-1.23001053 38.31716309 -1.22955231 37.25932617 -1.2290802 36.16943359 C-1.22605545 33.93000163 -1.21816254 31.69057182 -1.20581055 29.45117188 C-1.18757559 26.01424749 -1.18530067 22.57759266 -1.18554688 19.140625 C-1.180631 16.96874766 -1.17480237 14.79687215 -1.16796875 12.625 C-1.16685593 11.59165527 -1.1657431 10.55831055 -1.16459656 9.49365234 C-1.15821671 8.5392627 -1.15183685 7.58487305 -1.14526367 6.6015625 C-1.14145187 5.75932129 -1.13764008 4.91708008 -1.13371277 4.04931641 C-1 2 -1 2 0 0 Z M1 50 C1 50.33 1 50.66 1 51 C19.48 51 37.96 51 57 51 C57 50.67 57 50.34 57 50 C38.52 50 20.04 50 1 50 Z " fill="#FCFCFC" transform="translate(283,41)"/>
<path d="M0 0 C0.65983887 0.26474121 1.31967773 0.52948242 1.99951172 0.80224609 C9.48365375 3.88888494 16.85304082 7.7503381 22.8125 13.3125 C22.8125 13.9725 22.8125 14.6325 22.8125 15.3125 C23.37582031 15.53292969 23.93914062 15.75335938 24.51953125 15.98046875 C27.53918459 17.73464556 29.29163674 19.92751166 31.5 22.625 C32.28761719 23.56988281 33.07523438 24.51476562 33.88671875 25.48828125 C35.77256981 28.25394112 36.45916578 30.02469515 36.8125 33.3125 C35.88953125 33.76238281 34.9665625 34.21226562 34.015625 34.67578125 C32.69735169 35.32437377 31.379697 35.97422444 30.0625 36.625 C29.35746338 36.97312744 28.65242676 37.32125488 27.92602539 37.67993164 C23.73809916 39.7732132 19.62010225 41.95558962 15.54296875 44.2578125 C14.66286133 44.75369873 13.78275391 45.24958496 12.87597656 45.76049805 C11.1549702 46.73668434 9.43922537 47.72221889 7.72949219 48.71801758 C2.98972847 51.40385182 -0.72912556 52.96814618 -6.1875 53.3125 C-6.909375 52.24 -7.63125 51.1675 -8.375 50.0625 C-12.10066191 44.88215549 -15.87405644 41.76944851 -22.1875 40.3125 C-27.85361097 39.73162172 -32.40137584 39.89383989 -37.1875 43.3125 C-39.68232379 47.06072845 -39.68232379 47.06072845 -39.97851562 51.41186523 C-39.71748047 52.03907471 -39.45644531 52.66628418 -39.1875 53.3125 C-36.16501569 54.5510615 -33.32697792 55.4530053 -30.1875 56.3125 C-28.39113003 56.83151259 -26.5947695 57.35055813 -24.79858398 57.87020874 C-20.742427 59.03919703 -16.68135398 60.19124134 -12.61669922 61.33032227 C-4.90134886 63.49666085 2.62424267 65.69711002 9.8125 69.3125 C10.82699219 69.81652344 11.84148437 70.32054687 12.88671875 70.83984375 C20.70864827 75.06064578 25.95212855 78.69791806 30.8125 86.3125 C31.46605469 86.9209375 32.11960937 87.529375 32.79296875 88.15625 C35.08605855 90.60457798 35.92589271 92.58905568 37 95.75 C37.32355469 96.67683594 37.64710938 97.60367188 37.98046875 98.55859375 C41.62299865 110.61485468 41.46734065 126.61291729 36.8125 138.3125 C28.19082725 153.63317201 14.63379568 161.80113952 -1.9296875 166.5 C-25.77389482 172.44675674 -51.40351823 170.44977121 -73.3046875 159.0703125 C-81.53822718 154.04986148 -88.08803127 146.69393672 -94.1875 139.3125 C-94.72890625 138.65894531 -95.2703125 138.00539062 -95.828125 137.33203125 C-99.20877929 132.97618822 -99.20877929 132.97618822 -99.12304688 130.30224609 C-97.76539496 127.41475573 -95.9701972 126.73787024 -93.15625 125.2890625 C-91.59777344 124.46921875 -91.59777344 124.46921875 -90.0078125 123.6328125 C-88.91210938 123.07335937 -87.81640625 122.51390625 -86.6875 121.9375 C-79.95404759 118.44849561 -73.37934325 114.9836211 -67.16235352 110.62402344 C-63.9909134 108.51783277 -60.62588358 106.93791769 -57.1875 105.3125 C-56.51654297 106.30830078 -56.51654297 106.30830078 -55.83203125 107.32421875 C-49.33282863 117.105537 -49.33282863 117.105537 -39.1875 122.3125 C-31.19192976 123.46618956 -22.20964355 124.51734351 -14.625 121.1875 C-12.89193075 119.2427166 -12.89193075 119.2427166 -12.6875 115.875 C-13.27766393 111.67008203 -13.95599544 110.92948894 -17.1875 108.3125 C-20.27603238 106.92170423 -20.27603238 106.92170423 -23.8125 105.875 C-24.46130127 105.66746094 -25.11010254 105.45992188 -25.77856445 105.24609375 C-30.93798733 103.62304185 -36.15366744 102.22000404 -41.375 100.8125 C-48.59068707 98.85683938 -55.41635187 96.52345993 -62.1875 93.3125 C-63.10789062 92.89613281 -64.02828125 92.47976562 -64.9765625 92.05078125 C-75.56439463 86.84633982 -84.59398571 78.30204685 -89.1875 67.3125 C-89.50332031 66.59191406 -89.81914063 65.87132812 -90.14453125 65.12890625 C-94.07095099 54.4970939 -93.75861336 40.65856955 -89.1875 30.3125 C-88.80851563 29.43464844 -88.42953125 28.55679688 -88.0390625 27.65234375 C-81.29608409 13.79610776 -69.49385061 4.68648029 -55.19824219 -0.39453125 C-37.40759417 -6.09453248 -17.52388776 -7.0318218 0 0 Z M-91.1875 40.3125 C-90.1875 42.3125 -90.1875 42.3125 -90.1875 42.3125 Z M-11.1875 114.3125 C-10.1875 117.3125 -10.1875 117.3125 -10.1875 117.3125 Z " fill="#F38A0D" transform="translate(1104.1875,105.6875)"/>
<path d="M0 0 C1.64159063 -0.00870167 3.28317313 -0.01907045 4.92474365 -0.03097534 C9.37116459 -0.05769959 13.81724496 -0.05891901 18.26373053 -0.05384874 C21.98131218 -0.05170537 25.69882547 -0.06148617 29.41639245 -0.07105958 C38.19008213 -0.0932309 46.96360056 -0.09413566 55.73730469 -0.08203125 C64.77555509 -0.0699532 73.81318267 -0.09457331 82.85132682 -0.13717139 C90.62313445 -0.17244832 98.39474425 -0.18439907 106.16662896 -0.1778959 C110.80317193 -0.17427675 115.43927065 -0.17947588 120.07574081 -0.20732498 C124.43779177 -0.23254658 128.79887482 -0.22853491 133.16091156 -0.2025032 C134.75679736 -0.19778627 136.35275196 -0.20318902 137.94855881 -0.21974945 C146.93533669 -0.30624586 154.17107551 -0.03645348 160.92626953 6.54931641 C166.06969161 12.5535695 166.27844119 18.38469851 166.19970703 26.02978516 C165.68792834 32.61710804 163.30597598 36.52782667 158.48876953 40.92431641 C153.71112095 44.89275769 149.29815324 45.79949682 143.15275574 45.81674194 C142.48442555 45.82127306 141.81609537 45.82580417 141.12751275 45.83047259 C138.8952403 45.84310025 136.66321235 45.84149731 134.4309082 45.83984375 C132.82740466 45.84583006 131.22390399 45.85263585 129.6204071 45.86019897 C125.2690497 45.87785656 120.91777098 45.88255428 116.56638122 45.88383055 C113.8460933 45.88525294 111.12582533 45.88952422 108.40554237 45.89482498 C98.91040402 45.91332504 89.41532179 45.9214957 79.92016602 45.91992188 C71.07748329 45.91872075 62.23504475 45.93981749 53.39242381 45.9714092 C45.79394771 45.99758595 38.19555129 46.00828857 30.59703046 46.00701106 C26.06173797 46.0065018 21.52666249 46.01216483 16.99141502 46.03336716 C12.72397419 46.05277296 8.45695683 46.05285816 4.18950081 46.03833389 C2.62705744 46.03624753 1.0645874 46.04093643 -0.49781036 46.05305481 C-8.55235493 46.11146044 -15.18209425 46.15897629 -22.07373047 41.54931641 C-24.16748047 39.47900391 -24.16748047 39.47900391 -25.57373047 37.42431641 C-26.30076172 36.39951172 -26.30076172 36.39951172 -27.04248047 35.35400391 C-28.07373047 33.54931641 -28.07373047 33.54931641 -28.07373047 31.54931641 C-28.73373047 31.54931641 -29.39373047 31.54931641 -30.07373047 31.54931641 C-30.07373047 24.61931641 -30.07373047 17.68931641 -30.07373047 10.54931641 C-29.08373047 11.04431641 -29.08373047 11.04431641 -28.07373047 11.54931641 C-27.39310547 10.47681641 -26.71248047 9.40431641 -26.01123047 8.29931641 C-19.98488858 -1.19673748 -9.94279033 -0.03475888 0 0 Z " fill="#F48B0D" transform="translate(77.07373046875,136.45068359375)"/>
<path d="M0 0 C5.33852794 -0.0494731 10.67692214 -0.08575425 16.015625 -0.10986328 C17.83140386 -0.11991491 19.64716656 -0.13355828 21.46289062 -0.15087891 C24.07425935 -0.17516406 26.68541387 -0.18649148 29.296875 -0.1953125 C30.10743347 -0.20563507 30.91799194 -0.21595764 31.75311279 -0.22659302 C35.71012765 -0.22737903 38.62254318 -0.12559199 42 2 C43.4369988 2.55084398 44.88302691 3.07854668 46.3359375 3.5859375 C47.15320313 3.87726563 47.97046875 4.16859375 48.8125 4.46875 C50.51143948 5.06959445 52.2119548 5.66600275 53.9140625 6.2578125 C64.81002536 10.16391239 72.37278077 16.72479274 77.9375 26.9375 C80.24495294 31.86987425 80.87345313 36.59299727 81 42 C78 42 78 42 76 41 C73.76398294 41.73288477 71.55828225 42.55990615 69.375 43.4375 C67.59222656 44.14712891 67.59222656 44.14712891 65.7734375 44.87109375 C64.85820313 45.24363281 63.94296875 45.61617187 63 46 C63.27263672 46.86951294 63.27263672 46.86951294 63.55078125 47.7565918 C64.37449292 50.39801334 65.18732991 53.04266153 66 55.6875 C66.28617188 56.59951172 66.57234375 57.51152344 66.8671875 58.45117188 C67.13789062 59.33740234 67.40859375 60.22363281 67.6875 61.13671875 C68.06455078 62.35427856 68.06455078 62.35427856 68.44921875 63.59643555 C69.25334167 67.10556239 69.68345004 69.88885638 67.7578125 73.01953125 C67.21898437 73.61121094 66.68015625 74.20289063 66.125 74.8125 C65.59132813 75.41707031 65.05765625 76.02164063 64.5078125 76.64453125 C63 78 63 78 61 78 C59.60089931 72.4475152 58.24759182 66.88661689 56.9375 61.3125 C56.76412109 60.57966797 56.59074219 59.84683594 56.41210938 59.09179688 C55.54445651 55.4051033 54.71186182 51.72076229 54 48 C52.74509766 48.19916016 52.74509766 48.19916016 51.46484375 48.40234375 C50.30082031 48.57894531 49.13679687 48.75554687 47.9375 48.9375 C46.81214844 49.11152344 45.68679688 49.28554687 44.52734375 49.46484375 C38.04328769 50.23129386 31.51473703 50.5656842 25 51 C25 62.88 25 74.76 25 87 C9.25 94.875 9.25 94.875 3.0703125 94.68359375 C1.76191406 94.66103516 0.45351563 94.63847656 -0.89453125 94.61523438 C-2.20808594 94.55658203 -3.52164063 94.49792969 -4.875 94.4375 C-6.25642922 94.4022578 -7.63794742 94.370342 -9.01953125 94.34179688 C-12.34871552 94.26031334 -15.67312769 94.14597174 -19 94 C-18.75552124 95.41273193 -18.75552124 95.41273193 -18.50610352 96.85400391 C-17.89469304 100.65459984 -17.93374593 104.15726394 -18 108 C-23.625 111 -23.625 111 -27 111 C-27.66 105.39 -28.32 99.78 -29 94 C-36.92 94 -44.84 94 -53 94 C-51.4546277 103.35356919 -49.75041028 111.57780819 -46.0859375 120.328125 C-45.17856728 122.56064742 -44.50347926 124.65043011 -44 127 C-51.40409149 126.12893041 -56.31054121 121.01420786 -61.3125 115.9375 C-62.1178418 115.14375977 -62.1178418 115.14375977 -62.93945312 114.33398438 C-69.13201345 108.11018793 -68.2508421 101.82937482 -68.29516602 93.5534668 C-68.30654274 92.0826647 -68.32675939 90.61189897 -68.35668945 89.14135742 C-68.86354518 64.19216311 -59.84054099 44.50575889 -42.7956543 26.33300781 C-30.50345409 13.73122627 -15.8733195 6.63315925 1 2 C0.505 1.01 0.505 1.01 0 0 Z M24 15 C24 23.91 24 32.82 24 42 C27.3825 41.71125 30.765 41.4225 34.25 41.125 C35.30993164 41.03879395 36.36986328 40.95258789 37.46191406 40.86376953 C38.30463867 40.78755371 39.14736328 40.71133789 40.015625 40.6328125 C40.87446289 40.55949707 41.73330078 40.48618164 42.61816406 40.41064453 C45.07709617 39.9867081 46.84159153 39.22775866 49 38 C44.05668917 29.96366786 38.76823512 21.58891124 31 16 C28.69 15.67 26.38 15.34 24 15 Z M5.75390625 19.06640625 C-2.97491281 27.94133446 -2.97491281 27.94133446 -7 39 C-3.72971069 39.50360223 -0.45868619 40.00225954 2.8125 40.5 C3.74126953 40.64308594 4.67003906 40.78617188 5.62695312 40.93359375 C6.51962891 41.06894531 7.41230469 41.20429688 8.33203125 41.34375 C9.15421143 41.46943359 9.9763916 41.59511719 10.82348633 41.72460938 C13.13040059 42.06276375 13.13040059 42.06276375 16 42 C16 33.09 16 24.18 16 15 C11.60793815 15 8.99599735 16.08368244 5.75390625 19.06640625 Z M46 20 C46.37511719 20.47308594 46.75023437 20.94617188 47.13671875 21.43359375 C50.96314405 26.37806775 54.10343624 31.46320555 57 37 C58.60568666 36.71682074 60.20952047 36.42312209 61.8125 36.125 C62.70582031 35.96257812 63.59914063 35.80015625 64.51953125 35.6328125 C67.22727846 35.08811551 67.22727846 35.08811551 70 33 C59.19192161 23.7588679 59.19192161 23.7588679 46 20 Z M-7 20 C-14.74102843 23.57580501 -21.50428066 27.4556739 -28 33 C-24.31265242 35.45823172 -21.30300029 36.01242616 -17 37 C-16.45730469 36.25234375 -15.91460937 35.5046875 -15.35546875 34.734375 C-14.64003906 33.74953125 -13.92460937 32.7646875 -13.1875 31.75 C-12.12595703 30.28820312 -12.12595703 30.28820312 -11.04296875 28.796875 C-9.37845179 26.51810991 -7.69998177 24.25234178 -6 22 C-6.33 21.34 -6.66 20.68 -7 20 Z M-36.734375 41.73046875 C-46.80206182 54.00290094 -53 69.05347242 -53 85 C-45.08 85 -37.16 85 -29 85 C-28.773125 83.288125 -28.54625 81.57625 -28.3125 79.8125 C-27.20873727 72.55006118 -25.52426168 65.46595576 -23.76489258 58.3371582 C-22.67356839 53.90523149 -21.66298889 49.52173323 -21 45 C-22.95649397 44.16235732 -24.91525556 43.33000941 -26.875 42.5 C-27.96554687 42.0359375 -29.05609375 41.571875 -30.1796875 41.09375 C-33.84024195 39.5074005 -33.84024195 39.5074005 -36.734375 41.73046875 Z M-12 47 C-14.56107412 54.04295383 -16.66157066 59.91575622 -17.75 67.125 C-17.87503906 67.85847656 -18.00007813 68.59195313 -18.12890625 69.34765625 C-18.9899038 74.73125634 -19 79.42477428 -19 85 C-7.45 85 4.1 85 16 85 C16 73.45 16 61.9 16 50 C6.76 49.01 -2.48 48.02 -12 47 Z " fill="#FCFCFC" transform="translate(498,98)"/>
<path d="M0 0 C1.37707375 -0.00856522 1.37707375 -0.00856522 2.78196716 -0.01730347 C3.78202789 -0.01842133 4.78208862 -0.01953918 5.81245422 -0.02069092 C7.40098457 -0.02813828 7.40098457 -0.02813828 9.02160645 -0.03573608 C12.52782337 -0.05034955 16.03399503 -0.05715897 19.54023743 -0.06268311 C21.97918702 -0.06843596 24.41813661 -0.07419368 26.85708618 -0.07995605 C31.97404694 -0.09046423 37.090992 -0.09630786 42.20796204 -0.09979248 C48.75370859 -0.10527171 55.29924656 -0.12928854 61.84492779 -0.15776443 C66.88507689 -0.17642182 71.92517611 -0.18159811 76.96535683 -0.18312836 C79.37780203 -0.18614923 81.79024647 -0.19415861 84.2026577 -0.20731354 C87.58446819 -0.22443571 90.9657738 -0.22247827 94.34761047 -0.21600342 C95.33755005 -0.2252182 96.32748962 -0.23443298 97.34742737 -0.243927 C104.77746121 -0.199536 112.54089988 0.77195776 118.27851868 5.95294189 C118.81219055 6.41313721 119.34586243 6.87333252 119.89570618 7.34747314 C124.00897254 12.23863704 124.88395552 16.90795287 124.77851868 23.14044189 C124.79012024 23.82622314 124.8017218 24.51200439 124.81367493 25.21856689 C124.78049941 31.0132239 123.42292873 35.00906456 119.43086243 39.22247314 C118.74121399 39.79352783 118.05156555 40.36458252 117.34101868 40.95294189 C116.64879211 41.53688721 115.95656555 42.12083252 115.24336243 42.72247314 C112.22067027 45.05206392 110.39170982 45.2716576 106.62994385 45.30107117 C105.11816055 45.3161396 105.11816055 45.3161396 103.57583618 45.33151245 C101.91067207 45.34025894 101.91067207 45.34025894 100.21186829 45.34918213 C99.04585083 45.35896591 97.87983337 45.36874969 96.67848206 45.37882996 C92.80429739 45.40884009 88.9301145 45.43049168 85.05586243 45.44903564 C84.39610263 45.45233297 83.73634284 45.45563029 83.05659032 45.45902753 C76.82982745 45.48982223 70.60305969 45.51652197 64.37624264 45.53344631 C56.42208641 45.55532056 48.46860805 45.59721241 40.51472276 45.66688389 C34.91713983 45.71424101 29.31973894 45.7383958 23.72196203 45.7456432 C20.38170502 45.75058454 17.04281523 45.76856887 13.70266533 45.8053875 C9.96822019 45.84432804 6.23553102 45.84533158 2.50093079 45.83746338 C1.404991 45.85746399 0.30905121 45.8774646 -0.82009888 45.89807129 C-8.22899807 45.82818423 -13.04947824 44.14282664 -18.59648132 39.14044189 C-22.67506985 34.26540221 -22.94851677 29.22398288 -23.03398132 23.01544189 C-23.04437439 22.3343335 -23.05476746 21.6532251 -23.06547546 20.95147705 C-22.95887478 14.90979154 -21.18102823 10.98194235 -17.28398132 6.45294189 C-12.05129217 1.95039541 -6.80988169 0.02545497 0 0 Z " fill="#F48B0D" transform="translate(73.59648132324219,187.85955810546875)"/>
<path d="M0 0 C1.4675901 -0.01279495 1.4675901 -0.01279495 2.96482849 -0.02584839 C4.03191544 -0.02494202 5.09900238 -0.02403564 6.19842529 -0.02310181 C7.32732681 -0.02981903 8.45622833 -0.03653625 9.61933899 -0.04345703 C13.35765974 -0.06248068 17.09580131 -0.06636368 20.83416748 -0.06851196 C23.43245518 -0.07493762 26.03074215 -0.08166581 28.62902832 -0.08868408 C34.07975244 -0.10066835 39.53040545 -0.10444941 44.98114014 -0.10317993 C51.26824419 -0.10197992 57.55500418 -0.12305437 63.84202123 -0.15466726 C69.90221042 -0.18404678 75.96221394 -0.19115393 82.02248383 -0.18996048 C84.59485019 -0.19231858 87.16721918 -0.20115379 89.7395401 -0.21662521 C93.34200907 -0.23626062 96.94359785 -0.23045532 100.54608154 -0.21841431 C101.60507156 -0.22965332 102.66406158 -0.24089233 103.75514221 -0.25247192 C110.92214324 -0.19172072 116.65251613 0.83321163 121.97088623 6.08383179 C122.33311279 6.66004272 122.69533936 7.23625366 123.06854248 7.82992554 C123.63895264 8.69810913 123.63895264 8.69810913 124.22088623 9.58383179 C127.57843397 15.7945746 127.14023425 25.06353118 125.51776123 31.82211304 C123.20190182 37.0659533 119.06428647 40.48284055 114.13104248 43.26742554 C111.17346331 44.17458278 108.49998015 44.39849822 105.41394043 44.41459656 C103.99683525 44.42532951 103.99683525 44.42532951 102.55110168 44.4362793 C101.0065757 44.44031265 101.0065757 44.44031265 99.43084717 44.44442749 C97.79601631 44.45428429 97.79601631 44.45428429 96.12815857 44.46434021 C92.51974417 44.48405806 88.91137135 44.49573213 85.30291748 44.50570679 C84.06989143 44.50978231 82.83686539 44.51385784 81.56647491 44.51805687 C75.71346855 44.5367614 69.86047851 44.55132898 64.00744796 44.55966884 C57.2659594 44.56943501 50.52479973 44.59574342 43.783427 44.63616973 C37.93256887 44.67004391 32.08182046 44.68181996 26.23087311 44.68587303 C23.7478131 44.69074146 21.26475667 44.70236266 18.78176117 44.72091103 C15.303847 44.74527796 11.82678946 44.74434143 8.34881592 44.73739624 C7.32722885 44.7502063 6.30564178 44.76301636 5.25309753 44.7762146 C-2.15514157 44.72240645 -7.56283282 43.2219555 -13.14630127 38.23226929 C-13.96807861 37.22873413 -13.96807861 37.22873413 -14.80645752 36.20492554 C-15.65530518 35.19752319 -15.65530518 35.19752319 -16.52130127 34.16976929 C-20.4544461 28.61776485 -19.47046133 20.75555649 -18.86895752 14.26742554 C-16.71168318 8.25212115 -12.46714709 4.37966503 -7.02092361 1.18257713 C-4.52185622 0.11981619 -2.71092345 0.01070573 0 0 Z " fill="#F48B0D" transform="translate(126.86895751953125,84.73257446289063)"/>
<path d="M0 0 C0.61488281 0.19207031 1.22976563 0.38414062 1.86328125 0.58203125 C3.40900421 6.58935184 4.17158981 12.19045358 4.1640625 18.38671875 C4.16834763 19.19134552 4.17263275 19.99597229 4.17704773 20.82498169 C4.18274706 22.51400824 4.1833241 24.20305932 4.17895508 25.89208984 C4.17579723 28.44412063 4.1993018 30.99498705 4.22460938 33.546875 C4.25917861 42.3228049 3.96662658 50.25302876 0.86328125 58.58203125 C0.44046875 59.75636719 0.01765625 60.93070313 -0.41796875 62.140625 C-0.82015625 63.09066406 -1.22234375 64.04070312 -1.63671875 65.01953125 C-2.03890625 65.98761719 -2.44109375 66.95570313 -2.85546875 67.953125 C-4.07919331 70.46399887 -5.44924269 72.36928691 -7.13671875 74.58203125 C-7.7503125 75.69578125 -8.36390625 76.80953125 -8.99609375 77.95703125 C-11.02511677 81.56846122 -13.54624156 84.58148517 -16.38671875 87.58203125 C-16.87414551 88.1018457 -17.36157227 88.62166016 -17.86376953 89.15722656 C-32.81181015 104.9266962 -52.39544674 116.25329259 -74.48828125 116.91796875 C-76.54692786 116.94304918 -78.60477583 116.95311696 -80.66357422 116.95263672 C-82.73750877 116.95698054 -84.80925658 116.99331609 -86.8828125 117.03125 C-99.42938939 117.13858126 -111.20145009 114.79882337 -122.38671875 108.83203125 C-123.37103882 108.32313354 -123.37103882 108.32313354 -124.37524414 107.80395508 C-140.19609746 99.40389512 -140.19609746 99.40389512 -142.13671875 93.58203125 C-138.28269746 93.49432742 -134.42893584 93.4414039 -130.57421875 93.39453125 C-129.48818359 93.36939453 -128.40214844 93.34425781 -127.28320312 93.31835938 C-121.0882562 93.2618705 -116.60632667 93.59218819 -111.13671875 96.58203125 C-111.46671875 94.93203125 -111.79671875 93.28203125 -112.13671875 91.58203125 C-108.76574492 90.08382066 -106.93229756 89.58203125 -103.13671875 89.58203125 C-101.2421875 91.91796875 -101.2421875 91.91796875 -99.32421875 94.95703125 C-96.14461936 99.81068064 -96.14461936 99.81068064 -91.13671875 102.26953125 C-90.14671875 102.37265625 -89.15671875 102.47578125 -88.13671875 102.58203125 C-88.19859375 101.92203125 -88.26046875 101.26203125 -88.32421875 100.58203125 C-88.12194804 97.34569985 -87.12445504 94.88191527 -85.96313477 91.88232422 C-84.52583845 87.88167256 -83.54263582 83.76501767 -82.51171875 79.64453125 C-82.08514687 77.94713064 -81.65562162 76.25046855 -81.22265625 74.5546875 C-81.03751465 73.81484619 -80.85237305 73.07500488 -80.66162109 72.31274414 C-80.13671875 70.58203125 -80.13671875 70.58203125 -79.13671875 69.58203125 C-70.02822173 68.88511778 -61.11276555 70.20864704 -52.13671875 71.58203125 C-47.58104066 58.82613259 -44.81365294 45.99750479 -43.13671875 32.58203125 C-51.71671875 32.58203125 -60.29671875 32.58203125 -69.13671875 32.58203125 C-70.34857798 28.94645356 -69.72932267 27.94419507 -68.13671875 24.58203125 C-67.13671875 23.58203125 -67.13671875 23.58203125 -64.82006836 23.46850586 C-63.81983643 23.47374268 -62.81960449 23.47897949 -61.7890625 23.484375 C-60.70947266 23.48759766 -59.62988281 23.49082031 -58.51757812 23.49414062 C-56.81311523 23.50670898 -56.81311523 23.50670898 -55.07421875 23.51953125 C-53.36395508 23.52629883 -53.36395508 23.52629883 -51.61914062 23.53320312 C-48.79161524 23.54503378 -45.96419235 23.56151715 -43.13671875 23.58203125 C-42.64171875 22.09703125 -42.64171875 22.09703125 -42.13671875 20.58203125 C-39.16671875 20.58203125 -36.19671875 20.58203125 -33.13671875 20.58203125 C-33.13671875 21.57203125 -33.13671875 22.56203125 -33.13671875 23.58203125 C-25.21671875 23.25203125 -17.29671875 22.92203125 -9.13671875 22.58203125 C-9.36359375 20.35453125 -9.59046875 18.12703125 -9.82421875 15.83203125 C-10.5016226 9.18115712 -10.5016226 9.18115712 -8.71875 6.25390625 C-7.93564453 5.42632812 -7.93564453 5.42632812 -7.13671875 4.58203125 C-6.80671875 3.92203125 -6.47671875 3.26203125 -6.13671875 2.58203125 C-2.77945599 -0.54369614 -2.77945599 -0.54369614 0 0 Z M-33.13671875 32.58203125 C-33.306875 33.77957031 -33.47703125 34.97710937 -33.65234375 36.2109375 C-35.58825101 49.38571088 -38.07911647 62.19090566 -43.13671875 74.58203125 C-41.01331715 75.41942906 -38.88794595 76.25183408 -36.76171875 77.08203125 C-35.57835937 77.54609375 -34.395 78.01015625 -33.17578125 78.48828125 C-30.36139435 79.69490919 -30.36139435 79.69490919 -28.13671875 79.58203125 C-18.50797724 68.91356647 -11.64013469 54.66107132 -9.13671875 40.58203125 C-8.99621094 39.83695313 -8.85570312 39.091875 -8.7109375 38.32421875 C-8.44710741 36.75395293 -8.27769848 35.16805324 -8.13671875 33.58203125 C-9.17464647 32.3202203 -9.17464647 32.3202203 -11.45336914 32.46850586 C-12.95371704 32.47636108 -12.95371704 32.47636108 -14.484375 32.484375 C-15.56396484 32.48759766 -16.64355469 32.49082031 -17.75585938 32.49414062 C-19.46032227 32.50670898 -19.46032227 32.50670898 -21.19921875 32.51953125 C-22.90948242 32.52629883 -22.90948242 32.52629883 -24.65429688 32.53320312 C-27.48182226 32.54503378 -30.30924515 32.56151715 -33.13671875 32.58203125 Z M-80.13671875 78.58203125 C-80.13671875 86.50203125 -80.13671875 94.42203125 -80.13671875 102.58203125 C-73.49732833 103.31354222 -73.49732833 103.31354222 -70.57421875 100.51953125 C-69.36765625 99.06546875 -69.36765625 99.06546875 -68.13671875 97.58203125 C-67.65332031 97.0509375 -67.16992188 96.51984375 -66.671875 95.97265625 C-60.12380741 89.08537835 -60.12380741 89.08537835 -57.13671875 80.58203125 C-58.71681239 80.23366415 -60.30114139 79.90452156 -61.88671875 79.58203125 C-62.7684375 79.39640625 -63.65015625 79.21078125 -64.55859375 79.01953125 C-69.71494839 78.38905994 -74.94196301 78.58203125 -80.13671875 78.58203125 Z M-47.13671875 82.58203125 C-49.77671875 86.87203125 -52.41671875 91.16203125 -55.13671875 95.58203125 C-52.13013348 96.96593374 -52.13013348 96.96593374 -49.359375 95.2890625 C-48.31652344 94.66386719 -47.27367187 94.03867188 -46.19921875 93.39453125 C-45.15894531 92.78222656 -44.11867188 92.16992188 -43.046875 91.5390625 C-39.76766359 89.46921144 -39.76766359 89.46921144 -36.13671875 85.58203125 C-39.76671875 84.59203125 -43.39671875 83.60203125 -47.13671875 82.58203125 Z " fill="#FCFCFC" transform="translate(602.13671875,159.41796875)"/>
<path d="M0 0 C-0.68415302 6.87309851 -2.18222301 13.42126293 -3.8359375 20.12109375 C-4.11595612 21.26159683 -4.39597473 22.40209991 -4.68447876 23.5771637 C-5.27534213 25.97387649 -5.86884575 28.36993975 -6.46484375 30.76538086 C-7.37728355 34.44671322 -8.27080689 38.13233177 -9.1640625 41.81835938 C-9.7410291 44.14872461 -10.31911454 46.47881318 -10.8984375 48.80859375 C-11.29704483 50.46936195 -11.29704483 50.46936195 -11.70370483 52.16368103 C-12.08892807 53.68645409 -12.08892807 53.68645409 -12.48193359 55.23999023 C-12.70319916 56.1374144 -12.92446472 57.03483856 -13.1524353 57.9594574 C-13.43213165 58.63283646 -13.711828 59.30621552 -14 60 C-15.485 60.495 -15.485 60.495 -17 61 C-18.40585684 59.93539887 -19.77567921 58.82290408 -21.125 57.6875 C-23.84851343 55.92546324 -25.76015832 54.82798859 -29.04833984 55.28417969 C-33.58658785 56.54363612 -37.86538428 58.39330703 -42.1809082 60.25952148 C-50.10908619 63.4867613 -60.6033747 63.30559856 -68.5 60.25 C-72.25600507 58.50416459 -75.67149644 56.47702591 -79 54 C-79.825 53.46375 -80.65 52.9275 -81.5 52.375 C-86.64833915 47.48407781 -90.19695162 40.85158384 -92 34 C-90.515 33.505 -90.515 33.505 -89 33 C-87.2734375 34.109375 -87.2734375 34.109375 -85.375 35.75 C-77.36514774 42.00088289 -69.02410883 42.99981396 -59 42 C-55.17137029 40.84816649 -54.27765967 40.4164895 -52 37 C-54.97 35.02 -57.94 33.04 -61 31 C-60 28 -60 28 -58.38037109 26.96020508 C-57.68508301 26.64978271 -56.98979492 26.33936035 -56.2734375 26.01953125 C-55.49709961 25.66455566 -54.72076172 25.30958008 -53.92089844 24.94384766 C-53.08075195 24.57050293 -52.24060547 24.1971582 -51.375 23.8125 C-49.61581795 23.00689021 -47.8580157 22.19826099 -46.1015625 21.38671875 C-45.22918945 20.98372559 -44.35681641 20.58073242 -43.45800781 20.16552734 C-40.15189454 18.59784908 -36.95990536 16.88211523 -33.75 15.125 C-27.18221762 11.54551241 -20.48651981 8.24949046 -13.75 5 C-12.73647461 4.5064502 -11.72294922 4.01290039 -10.67871094 3.50439453 C-9.25220215 2.82159424 -9.25220215 2.82159424 -7.796875 2.125 C-6.94448242 1.71507812 -6.09208984 1.30515625 -5.21386719 0.8828125 C-3 0 -3 0 0 0 Z " fill="#FCFCFC" transform="translate(528,188)"/>
<path d="M0 0 C2.22142762 1.68656719 4.25866673 3.45119348 6.2734375 5.37890625 C8.10966051 7.19237533 8.10966051 7.19237533 11 9 C15.05943864 13.99623217 15.14365941 19.91704831 14.92578125 26.109375 C13.91498235 32.67300421 9.1370999 37.15620654 4 41 C-2.37026263 44.69986382 -8.01932602 45.65413633 -15.3125 45.5625 C-16.17294922 45.58634766 -17.03339844 45.61019531 -17.91992188 45.63476562 C-26.1385942 45.61646123 -29.61412367 43.49411514 -38 40 C-38 48.58 -38 57.16 -38 66 C-40.97 66 -43.94 66 -47 66 C-49 64 -49 64 -49.24723816 61.34326172 C-49.24510063 59.65354248 -49.24510063 59.65354248 -49.24291992 57.9296875 C-49.24599655 56.65496582 -49.24907318 55.38024414 -49.25224304 54.06689453 C-49.24534508 52.66959453 -49.2380781 51.27229631 -49.23046875 49.875 C-49.22927694 48.44775433 -49.22882379 47.02050786 -49.2290802 45.59326172 C-49.22751492 42.60053606 -49.21922206 39.60792996 -49.20581055 36.61523438 C-49.18882062 32.7749001 -49.18499619 28.93469729 -49.18575573 25.09432983 C-49.18548408 22.1467157 -49.18000362 19.19913043 -49.17275429 16.25152588 C-49.16956723 14.83530903 -49.16760013 13.4190889 -49.16686058 12.00286865 C-49.16469745 10.02533801 -49.15516089 8.04781955 -49.14526367 6.0703125 C-49.14145187 4.94383301 -49.13764008 3.81735352 -49.13371277 2.65673828 C-49 0 -49 0 -48 -2 C-40.25 -2.125 -40.25 -2.125 -38 -1 C-36.875 1.0625 -36.875 1.0625 -36 3 C-35.40832031 2.65066406 -34.81664062 2.30132812 -34.20703125 1.94140625 C-33.41683594 1.48636719 -32.62664063 1.03132813 -31.8125 0.5625 C-31.03519531 0.11003906 -30.25789062 -0.34242188 -29.45703125 -0.80859375 C-20.94510996 -4.93599597 -8.29582247 -4.51644021 0 0 Z M-34 11 C-37.05944321 15.07925762 -38.33761024 18.64446518 -37.875 23.75 C-37.25314853 27.96645633 -36.28515411 30.94476988 -32.92578125 33.703125 C-24.34866284 38.7801637 -16.45296686 39.21474502 -6.69921875 37.625 C-2.03988118 36.13731794 0.4212942 32.40115279 2.82421875 28.3984375 C4.70529445 24.56129306 5.2064837 22.33615767 5 18 C2.59668557 11.76960666 -1.07660873 8.75014595 -7 6 C-8.2375 5.38125 -8.2375 5.38125 -9.5 4.75 C-17.96550573 2.21034828 -27.45199035 5.36566612 -34 11 Z M-18 39 C-14 40 -14 40 -14 40 Z " fill="#F38A0D" transform="translate(890,291)"/>
<path d="M0 0 C0.94875 0.721875 1.8975 1.44375 2.875 2.1875 C3.40222656 2.58195312 3.92945313 2.97640625 4.47265625 3.3828125 C8.63956358 6.63852879 11.38923485 9.38231566 12.30859375 14.69140625 C12.59802106 17.20334942 12.85626778 19.65865075 12.875 22.1875 C11.875 23.1875 11.875 23.1875 9.81858826 23.30775452 C8.91479935 23.30553391 8.01101044 23.30331329 7.07983398 23.30102539 C6.05885117 23.30094986 5.03786835 23.30087433 3.98594666 23.30079651 C2.8755452 23.29563522 1.76514374 23.29047394 0.62109375 23.28515625 C-0.50948959 23.2837413 -1.64007294 23.28232635 -2.80491638 23.28086853 C-6.43247065 23.27525019 -10.05996424 23.26269458 -13.6875 23.25 C-16.13997307 23.24498736 -18.5924471 23.24042405 -21.04492188 23.23632812 C-27.07163545 23.2252748 -33.09831339 23.20851884 -39.125 23.1875 C-38.53000313 24.47433174 -37.92359495 25.75589077 -37.3125 27.03515625 C-36.97605469 27.74937744 -36.63960937 28.46359863 -36.29296875 29.19946289 C-34.25260693 32.67242825 -31.17612079 34.48654358 -27.421875 35.76953125 C-18.85777607 37.32796422 -8.87463694 37.29024897 -1.125 33.1875 C-0.09704477 32.21625954 0.91036595 31.22165722 1.875 30.1875 C5.13960973 31.99162643 6.76429795 33.02144693 8.875 36.1875 C7.69847668 37.1592777 6.50804934 38.11422747 5.3125 39.0625 C4.65121094 39.59617187 3.98992188 40.12984375 3.30859375 40.6796875 C-3.00362038 44.59062595 -9.7495176 44.55270043 -16.9375 44.5625 C-17.87142578 44.58699219 -18.80535156 44.61148438 -19.76757812 44.63671875 C-28.01865509 44.67107438 -34.67835128 42.90304142 -41.21875 37.75 C-42.0128125 36.904375 -42.806875 36.05875 -43.625 35.1875 C-44.4396875 34.341875 -45.254375 33.49625 -46.09375 32.625 C-49.91524641 28.03920431 -50.57631185 24.7337148 -50.4375 18.8515625 C-49.75192391 13.00702635 -47.53766614 8.66743596 -43.5 4.4375 C-31.26777515 -4.52657318 -13.64054083 -7.91151368 0 0 Z M-36.484375 10.61328125 C-38.48330332 13.24093142 -38.48330332 13.24093142 -38.125 17.1875 C-24.925 17.1875 -11.725 17.1875 1.875 17.1875 C0.11044268 9.95417083 0.11044268 9.95417083 -5.125 6.1875 C-15.81469288 1.45465888 -27.85986542 1.74602886 -36.484375 10.61328125 Z M-19.125 38.1875 C-15.125 39.1875 -15.125 39.1875 -15.125 39.1875 Z " fill="#F38A0D" transform="translate(1011.125,291.8125)"/>
<path d="M0 0 C0 0.66 0 1.32 0 2 C0.5775 2.226875 1.155 2.45375 1.75 2.6875 C5.96268162 5.14489761 8.0156815 8.38715568 9.3125 13 C10.22806053 16.63294419 9.81226938 17.93865311 9 22 C-7.83 22 -24.66 22 -42 22 C-38.11171975 30.34258422 -38.11171975 30.34258422 -31.1875 34.15625 C-27.18256741 35.21637921 -23.44246827 35.46422334 -19.3125 35.5 C-18.60005127 35.50644531 -17.88760254 35.51289063 -17.15356445 35.51953125 C-11.36494894 35.37973884 -6.23088255 34.23088255 -2 30 C0.95662966 30.22743305 2.55033688 30.61235938 4.8125 32.5625 C5.204375 33.036875 5.59625 33.51125 6 34 C4.52830501 37.87992315 2.71176576 39.22480768 -1 41 C-12.36843588 44.41681167 -27.66960347 45.38057118 -38.69921875 40.47265625 C-44.11495703 37.00621596 -49.68168612 32.14704439 -52 26 C-52.9770091 17.71445527 -51.62392823 11.61676594 -46.6875 4.8125 C-34.36030081 -8.08805729 -15.04687669 -7.69062586 0 0 Z M-41 12 C-41 13.32 -41 14.64 -41 16 C-27.47 16 -13.94 16 0 16 C-3.09447881 8.77954944 -4.83953972 6.21751376 -11.75 3.25 C-22.33837161 -0.28604201 -33.87071726 3.12649844 -41 12 Z M-22 37 C-18 38 -18 38 -18 38 Z " fill="#F38A0C" transform="translate(752,293)"/>
<path d="M0 0 C3.96962212 -1.02075997 7.03387069 -1.10221501 11 0 C14.44621413 2.64030453 17.31090346 5.82876061 20.13916016 9.10791016 C23.19262435 12.82944021 23.19262435 12.82944021 27.5234375 14.34375 C31.80989731 12.0179737 34.70706868 8.25663508 37.83203125 4.57226562 C41.83277158 0.21965295 41.83277158 0.21965295 45.32226562 -0.43701172 C48.86518077 -0.47789151 51.62601263 -0.12466246 55 1 C53.5486668 4.37593745 51.71771229 6.46112477 49.05078125 8.96875 C47.90319336 10.07283203 47.90319336 10.07283203 46.73242188 11.19921875 C45.11297511 12.73893488 43.48791194 14.27276431 41.85742188 15.80078125 C41.09623047 16.53683594 40.33503906 17.27289063 39.55078125 18.03125 C38.84606689 18.69705078 38.14135254 19.36285156 37.4152832 20.04882812 C35.80924236 21.86166681 35.80924236 21.86166681 35.99853516 23.95239258 C37.37529477 26.76733234 39.22805064 28.54537179 41.47265625 30.73046875 C42.37177734 31.61541016 43.27089844 32.50035156 44.19726562 33.41210938 C45.14279297 34.32798828 46.08832031 35.24386719 47.0625 36.1875 C48.93185948 38.01082701 50.79634908 39.83894907 52.66015625 41.66796875 C53.49168213 42.47516357 54.32320801 43.2823584 55.17993164 44.11401367 C57 46 57 46 57 47 C52.6471774 48.18713344 49.35442921 48.24869661 45 47 C41.04012946 43.9713702 37.7300941 40.3268785 34.43359375 36.60351562 C33.46099609 35.51393555 33.46099609 35.51393555 32.46875 34.40234375 C31.60926758 33.38901978 31.60926758 33.38901978 30.73242188 32.35522461 C29.10433329 30.78390411 29.10433329 30.78390411 27.00439453 31.06030273 C24.53358124 32.21866575 23.25401883 33.57730497 21.4609375 35.6328125 C20.79707031 36.35597656 20.13320313 37.07914062 19.44921875 37.82421875 C18.07294568 39.3508192 16.71324417 40.89253357 15.37109375 42.44921875 C10.31742817 47.87148182 10.31742817 47.87148182 6.24707031 48.26855469 C3.75257398 48.01972055 1.42308778 47.63436526 -1 47 C-1 44 -1 44 0.8359375 41.82348633 C2.09277344 40.59021606 2.09277344 40.59021606 3.375 39.33203125 C4.72851562 37.99301758 4.72851562 37.99301758 6.109375 36.62695312 C7.0727573 35.68863843 8.03630108 34.7504895 9 33.8125 C9.96422346 32.86332231 10.92777392 31.91346044 11.890625 30.96289062 C14.25386746 28.63509681 16.62381482 26.31456867 19 24 C17.70065407 20.1969761 16.23668397 17.88795392 13.33984375 15.1171875 C12.62892578 14.42496094 11.91800781 13.73273438 11.18554688 13.01953125 C10.44369141 12.31183594 9.70183594 11.60414063 8.9375 10.875 C7.46297659 9.46037512 5.99271064 8.04129519 4.52734375 6.6171875 C3.87499756 5.99440918 3.22265137 5.37163086 2.55053711 4.72998047 C1 3 1 3 0 0 Z " fill="#F48B0D" transform="translate(772,289)"/>
<path d="M0 0 C2.5 2.1875 2.5 2.1875 4 4 C3.01 5.32 2.02 6.64 1 8 C-2.61941719 7.55680606 -5.90777881 7.0307404 -9.375 5.875 C-13.84098144 4.79700448 -17.55932804 4.79981839 -22 6 C-24.61106131 7.68916631 -24.61106131 7.68916631 -26 10 C-26 10.99 -26 11.98 -26 13 C-19.95922068 15.10998852 -14.01327634 17.04085823 -7.75 18.375 C-2.17117047 19.70189638 1.90749031 21.97476444 6 26 C7.7878984 29.57579679 7.86744931 33.12497098 7 37 C3.39556514 41.98067363 -0.8752437 44.33623082 -6.85009766 45.67163086 C-10.41787855 46.21656219 -13.8492922 46.08119702 -17.4375 45.8125 C-18.17959717 45.76206543 -18.92169434 45.71163086 -19.6862793 45.65966797 C-26.77425177 45.08952311 -33.57127753 43.95665965 -39 39 C-38.8125 37.1875 -38.8125 37.1875 -38 35 C-35.4375 33.25 -35.4375 33.25 -33 32 C-31.27473958 33.00911458 -29.54947917 34.01822917 -27.82421875 35.02734375 C-23.76624323 37.19101806 -19.97539125 37.18323772 -15.5 37.1875 C-14.82324219 37.19974609 -14.14648438 37.21199219 -13.44921875 37.22460938 C-9.73642956 37.23559396 -8.17016924 37.11344616 -5 35 C-4.33319632 32.04279372 -4.33319632 32.04279372 -5 29 C-10.06857955 24.83954095 -17.09064034 24.25890978 -23.33984375 22.98242188 C-29.34193308 21.66707038 -33.52060684 20.26829099 -37.375 15.1875 C-38.3483907 11.78063256 -37.89660101 9.40708385 -37 6 C-28.95961684 -5.15278955 -11.41735015 -5.92010748 0 0 Z M-18 39 C-14 40 -14 40 -14 40 Z " fill="#F38A0D" transform="translate(1131,291)"/>
<path d="M0 0 C2.5625 2.6875 2.5625 2.6875 4 5 C3 6.5625 3 6.5625 1 8 C-3.04494252 7.8010684 -6.11536652 7.34616093 -9.875 5.875 C-14.37301687 4.61555528 -18.47363939 4.8916617 -23 6 C-25.61434947 7.85339866 -25.61434947 7.85339866 -27 10 C-26.67 10.99 -26.34 11.98 -26 13 C-23.48522535 13.98195962 -21.08824537 14.77371405 -18.5 15.5 C-17.03254007 15.93876192 -15.56509207 16.37756373 -14.09765625 16.81640625 C-11.79682578 17.48641394 -9.49370674 18.13973975 -7.18359375 18.77734375 C-1.94185552 20.31795899 2.8591744 22.31802396 6 27 C7.12060639 31.78944102 6.742765 35.60360179 4.4375 39.9375 C-1.80693102 45.22124932 -7.94258884 45.49651092 -15.8125 45.4375 C-16.74642578 45.45748047 -17.68035156 45.47746094 -18.64257812 45.49804688 C-25.80889034 45.49307372 -33.30524149 44.39281472 -38.78051758 39.36499023 C-39.18294678 38.91454346 -39.58537598 38.46409668 -40 38 C-39 35 -39 35 -37.0625 33 C-34 32 -34 32 -31.97265625 32.92578125 C-31.19792969 33.38339844 -30.42320313 33.84101563 -29.625 34.3125 C-23.1171027 37.96829171 -16.2767884 38.0273113 -9 37 C-6.5520739 35.82066708 -6.5520739 35.82066708 -5 34 C-4.66602213 30.87413125 -4.66602213 30.87413125 -5 28 C-9.62414792 26.53272229 -14.23546844 25.14199803 -18.98046875 24.12109375 C-32.66674501 21.13200846 -32.66674501 21.13200846 -36.9921875 16.63671875 C-38.84694888 13.62452876 -38.60622517 11.39486096 -38 8 C-37.09152015 4.21466729 -35.92401561 2.57656146 -32.62109375 0.515625 C-22.70185806 -4.18643613 -9.94270664 -5.59413824 0 0 Z " fill="#F38A0D" transform="translate(1074,291)"/>
<path d="M0 0 C8.36064568 1.92937977 14.95477631 7.98338582 19.71484375 14.91796875 C24.55190662 22.75430464 26.41634625 29.67993587 25 39 C23.0625 41.8125 23.0625 41.8125 20 44 C18.64455789 45.31118278 17.2905313 46.62382961 15.9375 47.9375 C9.71442392 53.44132608 2.27322283 57.68655039 -6 59 C-5.38126544 55.67523356 -4.16895253 53.59385386 -2.1875 50.875 C4.12324217 41.6819477 6.18443438 32.65845503 6.3125 21.6875 C6.34150391 20.87087891 6.37050781 20.05425781 6.40039062 19.21289062 C6.46323274 13.14620982 5.04982766 9.18238749 2 4 C1.32489885 2.67091736 0.65594939 1.33863835 0 0 Z " fill="#FCFCFC" transform="translate(575,116)"/>
<path d="M0 0 C0 1.98 0 3.96 0 6 C-1.30324219 6.25523437 -1.30324219 6.25523437 -2.6328125 6.515625 C-10.4411542 8.15764764 -16.7369862 9.6289833 -22 16 C-23.1007076 19.3021228 -23.20627072 21.94083279 -23.31640625 25.41796875 C-23.35830078 26.67158203 -23.40019531 27.92519531 -23.44335938 29.21679688 C-23.48267578 30.52712891 -23.52199219 31.83746094 -23.5625 33.1875 C-23.60570992 34.52279978 -23.649325 35.85808652 -23.69335938 37.19335938 C-23.79956502 40.46213297 -23.90160997 43.73098333 -24 47 C-25.47906892 47.02689216 -26.95827483 47.04634621 -28.4375 47.0625 C-29.26121094 47.07410156 -30.08492187 47.08570313 -30.93359375 47.09765625 C-33 47 -33 47 -34 46 C-34.09794531 44.62920117 -34.12798081 43.2534432 -34.12939453 41.87915039 C-34.13254669 41.00476822 -34.13569885 40.13038605 -34.13894653 39.22950745 C-34.13591019 37.8029911 -34.13591019 37.8029911 -34.1328125 36.34765625 C-34.13376923 35.37718857 -34.13472595 34.40672089 -34.13571167 33.40684509 C-34.13639365 31.34976131 -34.13453814 29.29267538 -34.13037109 27.2355957 C-34.12502884 24.07954078 -34.13031253 20.92362855 -34.13671875 17.76757812 C-34.13605786 15.77343718 -34.13477647 13.77929633 -34.1328125 11.78515625 C-34.13483673 10.83616959 -34.13686096 9.88718292 -34.13894653 8.90943909 C-34.13421829 7.59313759 -34.13421829 7.59313759 -34.12939453 6.25024414 C-34.12859894 5.4760463 -34.12780334 4.70184845 -34.12698364 3.90419006 C-34 2 -34 2 -33 0 C-31.72125 -0.061875 -30.4425 -0.12375 -29.125 -0.1875 C-28.04605469 -0.23970703 -28.04605469 -0.23970703 -26.9453125 -0.29296875 C-26.30335938 -0.19628906 -25.66140625 -0.09960938 -25 0 C-24.34 0.99 -23.68 1.98 -23 3 C-22.32453125 2.79503906 -21.6490625 2.59007812 -20.953125 2.37890625 C-19.61507812 1.97478516 -19.61507812 1.97478516 -18.25 1.5625 C-17.36828125 1.29566406 -16.4865625 1.02882813 -15.578125 0.75390625 C-4.79732314 -2.39866157 -4.79732314 -2.39866157 0 0 Z " fill="#F48B0D" transform="translate(954,289)"/>
<path d="M0 0 C0.33 0 0.66 0 1 0 C1 74.58 1 149.16 1 226 C0.67 226 0.34 226 0 226 C0 151.42 0 76.84 0 0 Z " fill="#FDFDFD" transform="translate(637,108)"/>
<path d="M0 0 C38.94 0 77.88 0 118 0 C118 0.33 118 0.66 118 1 C79.06 1 40.12 1 0 1 C0 0.67 0 0.34 0 0 Z " fill="#F48B0D" transform="translate(120,83)"/>
<path d="M0 0 C33.99 0 67.98 0 103 0 C103 0.33 103 0.66 103 1 C69.01 1 35.02 1 0 1 C0 0.67 0 0.34 0 0 Z " fill="#F48B0D" transform="translate(71,186)"/>
<path d="M0 0 C29.37 0 58.74 0 89 0 C89 0.33 89 0.66 89 1 C59.63 1 30.26 1 0 1 C0 0.67 0 0.34 0 0 Z " fill="#000000" transform="translate(898,92)"/>
<path d="M0 0 C18.81 0 37.62 0 57 0 C57 0.33 57 0.66 57 1 C38.19 1 19.38 1 0 1 C0 0.67 0 0.34 0 0 Z " fill="#000000" transform="translate(396,92)"/>
<path d="M0 0 C3.63 0 7.26 0 11 0 C11 0.33 11 0.66 11 1 C7.37 1 3.74 1 0 1 C0 0.67 0 0.34 0 0 Z " fill="#000000" transform="translate(1052,337)"/>
<path d="M0 0 C3.3 0 6.6 0 10 0 C10 0.33 10 0.66 10 1 C6.7 1 3.4 1 0 1 C0 0.67 0 0.34 0 0 Z " fill="#000000" transform="translate(1110,337)"/>
<path d="M0 0 C3.3 0 6.6 0 10 0 C10 0.33 10 0.66 10 1 C6.7 1 3.4 1 0 1 C0 0.67 0 0.34 0 0 Z " fill="#000000" transform="translate(989,337)"/>
<path d="M0 0 C3.3 0 6.6 0 10 0 C10 0.33 10 0.66 10 1 C6.7 1 3.4 1 0 1 C0 0.67 0 0.34 0 0 Z " fill="#000000" transform="translate(869,337)"/>
<path d="M0 0 C3.3 0 6.6 0 10 0 C10 0.33 10 0.66 10 1 C6.7 1 3.4 1 0 1 C0 0.67 0 0.34 0 0 Z " fill="#000000" transform="translate(727,337)"/>
<path d="" fill="#000000" transform="translate(0,0)"/>
<path d="" fill="#F48B0D" transform="translate(0,0)"/>
<path d="" fill="#000000" transform="translate(0,0)"/>
<path d="M0 0 C2 1 2 1 2 1 Z " fill="#000000" transform="translate(1080,146)"/>
<path d="M0 0 C2 1 2 1 2 1 Z " fill="#000000" transform="translate(1073,146)"/>
<path d="" fill="#FDFDFD" transform="translate(0,0)"/>
<path d="" fill="#000000" transform="translate(0,0)"/>
<path d="" fill="#FDFDFD" transform="translate(0,0)"/>
</svg>